<svg xmlns="http://www.w3.org/2000/svg" viewBox="0 0 711.16 362.38"><defs><style>.cls-1{fill:none;}.cls-2{fill:#0bb6a5;}.cls-3{fill:#fff;}.cls-4{fill:#00686e;}.cls-5{fill:#00cdbd;}.cls-6{fill:#99ebe5;}</style></defs><g id="Layer_2" data-name="Layer 2"><g id="Layer_1-2" data-name="Layer 1"><path class="cls-1" d="M476.62,278.23c-1.35,0-2,.23-2,.69s.18.64.55.64a3.6,3.6,0,0,0,1.58-.64c.39-.23.59-.4.59-.5S477.08,278.23,476.62,278.23Z"/><path class="cls-1" d="M449.1,281.43c-5.87.73-8.93,1.19-9.16,1.38-.06.07-.1.12-.1.15s.27.15.79.15h1c2.57-.2,5.92-.56,10.07-1.08Q462,280.85,462,280.5c0-.1-.55-.15-1.63-.15Q457.92,280.35,449.1,281.43Z"/><path class="cls-1" d="M565.56,267.66q-11,1-11,1.48c0,.1.25.15.74.15a11.6,11.6,0,0,0,1.43-.1c.86-.1,2.62-.26,5.29-.49q17.72-1.53,17.71-1.73a5.52,5.52,0,0,0-1.18-.05Q574.54,266.92,565.56,267.66Z"/><path class="cls-1" d="M542.11,270.13c-1.71.1-3.19.25-4.44.44-1.55.24-2.32.48-2.32.74s.2.2.59.2,1.68-.2,4.25-.59c4.24-.59,6.37-.92,6.37-1s-.1-.05-.3-.05C545.67,269.88,544.29,270,542.11,270.13Z"/><path class="cls-1" d="M482.34,277.58a1.85,1.85,0,0,0-.71.15c-.25.1-.37.18-.37.25s.36.15,1.08.15c.43,0,.64-.09.64-.25S482.77,277.58,482.34,277.58Z"/><path class="cls-1" d="M471.78,279c-.69,0-1,.1-1,.3s.35.2,1,.2,1-.07,1-.2S472.47,279,471.78,279Z"/><path class="cls-1" d="M203.06,192.72q-8.24,59.81-10.35,87.46h18.56Q207.18,244.79,203.06,192.72Z"/><path class="cls-1" d="M451.1,216.33q-35.44,24.09-51.24,40.42-8.28,8.64-8.29,11.8v.15q.94,3.21,16.39,3.21,20,0,58.83-5.09l48.33-6.41q28.57-3.86,55.77-6.47c3.34-.29,6.86-.51,10.58-.66q-46.5-28.72-95.54-53l-5-2.44c-2,1.26-3.81,2.27-5.28,3.06Q467.39,205.28,451.1,216.33Z"/><path class="cls-1" d="M461.32,341.06a.19.19,0,0,0-.15.2,2.56,2.56,0,0,0,.64,1.18c.49.76.87,1.14,1.13,1.14,0,0,.05,0,.05-.05a3.81,3.81,0,0,0-.64-1.41C461.92,341.41,461.58,341.06,461.32,341.06Z"/><path class="cls-1" d="M593.94,266.18a2,2,0,0,0-.76.15c-.25.1-.38.18-.38.25s.27.16.8.19,1-.08,1-.24S594.37,266.21,593.94,266.18Z"/><path class="cls-1" d="M585.8,266.23a3,3,0,0,0-.82.1c-.24.07-.37.13-.37.2s.41.11,1.24.14,1.38,0,1.38-.14S586.75,266.23,585.8,266.23Z"/><path class="cls-2" d="M123.19,301.27q0-30.61-9.35-44.37T68.5,221.68Q55.95,214.23,53.26,209t-2.81-15.7q0-8.12,2.5-12.1a8.15,8.15,0,0,1,7.36-4q4.48,0,6.41,3t1.92,13.76v15.43h50.07v-8.23q0-24.81-4.8-35.17t-19.6-17.17q-14.79-6.81-35.79-6.82-19.2,0-32.78,6.24T6.08,165.46Q0,176.52,0,200.44,0,217,4.29,227.7t10.82,16.72q6.54,6,26.64,19.42T67,282.75q5,5.65,5,24.05,0,8.35-2.63,12.6a8.76,8.76,0,0,1-8,4.24c-3.59,0-6.08-1.11-7.49-3.34s-2.11-7.24-2.11-15.05V279.92H1.67v13.63q0,23.42,4.73,36.14t20,21q15.3,8.24,37,8.23,19.71,0,34.57-7.14t20-17.68Q123.19,323.52,123.19,301.27Z"/><path class="cls-2" d="M193.4,317.08h19.28l2.9,37.43h55.09L239.84,146.3H161.92l-27.5,208.21h55.74Zm9.66-124.36q4.11,52.08,8.21,87.46H192.71Q194.83,252.52,203.06,192.72Z"/><path class="cls-2" d="M361,147.43l-3.2-1.13H262.69V188h31.89V354.51h53.91V188h32v-33.4Q370.79,150.91,361,147.43Z"/><path class="cls-2" d="M393.21,187.06h8.71q-1,7.33-8.71,11.58v15.05a48.13,48.13,0,0,0,19.27-8.81,34.83,34.83,0,0,0,12-15.95,59.57,59.57,0,0,0,3.11-15.47q-17.06-7.29-34.35-14Z"/><path class="cls-3" d="M513.24,294.32s0,.05.1.05a8.88,8.88,0,0,0,2.66-.79c1.12-.43,1.68-.74,1.68-.94h-.1a8.17,8.17,0,0,0-2.56.71C513.83,293.83,513.24,294.15,513.24,294.32Z"/><path class="cls-2" d="M603.81,267.44q-11.1-7.21-22.34-14.16c-3.72.15-7.24.37-10.58.66q-27.2,2.63-55.77,6.47l-48.33,6.41Q428,271.9,408,271.91q-15.45,0-16.39-3.21v-.15q0-3.15,8.29-11.8,15.79-16.33,51.24-40.42,16.29-11.06,24.58-15.4c1.47-.79,3.23-1.8,5.28-3.06q-8.28-4-16.62-8-27.66,17.36-49,33.67Q390,242.88,380.81,255.82q-5,7.4-5,14.51a13.48,13.48,0,0,0,.81,4.74,13.33,13.33,0,0,0,3.09,4.49,20.2,20.2,0,0,0,4.83,3.7,28.45,28.45,0,0,0,9.68,2.91,112,112,0,0,0,15.25.79h2.37a349,349,0,0,0,34.85-2.2q21.16-2.19,65.59-8.36,35.6-4.93,55.68-6.71,15.11-1.33,26.6-1.34c4.09,0,7.77.09,11.06.26ZM451.74,282c-4.15.52-7.5.88-10.07,1.08h-1c-.52,0-.79-.05-.79-.15s0-.08.1-.15c.23-.19,3.29-.65,9.16-1.38s9.62-1.08,11.23-1.08c1.08,0,1.63,0,1.63.15S458.55,281.24,451.74,282Zm20-2.52c-.69,0-1-.07-1-.2s.35-.3,1-.3,1,.1,1,.3S472.47,279.51,471.78,279.51Zm4.94-.59a3.6,3.6,0,0,1-1.58.64c-.37,0-.55-.22-.55-.64s.68-.69,2-.69c.46,0,.69.06.69.19S477.11,278.69,476.72,278.92Zm5.62-.79q-1.08,0-1.08-.15c0-.07.12-.15.37-.25a1.85,1.85,0,0,1,.71-.15c.43,0,.64.1.64.3S482.77,278.13,482.34,278.13Zm57.85-7.21c-2.57.39-4,.59-4.25.59s-.59-.06-.59-.2.77-.5,2.32-.74c1.25-.19,2.73-.34,4.44-.44,2.18-.16,3.56-.25,4.15-.25.2,0,.3,0,.3.05S544.43,270.33,540.19,270.92Zm21.87-2.22c-2.67.23-4.43.39-5.29.49a11.6,11.6,0,0,1-1.43.1c-.49,0-.74-.05-.74-.15q0-.5,11-1.48,9-.74,13-.74a5.52,5.52,0,0,1,1.18.05Q579.77,267.17,562.06,268.7Zm23.79-2c-.83,0-1.24-.08-1.24-.14s.13-.13.37-.2a3,3,0,0,1,.82-.1c1,0,1.43.1,1.43.3S586.77,266.67,585.85,266.67Zm7.75.1c-.53,0-.8-.1-.8-.19s.13-.15.38-.25a2,2,0,0,1,.76-.15c.43,0,.64.15.64.35S594.25,266.77,593.6,266.77Z"/><path class="cls-2" d="M563.09,334q12.09-4.2,13.48-4.54a16,16,0,0,0,3.55-1.38c1.38-.69,3.93-1.8,7.65-3.31a186.85,186.85,0,0,0,23.89-12q12.14-7.19,18.56-13.1,4.1-3.86,4.59-3.85.2,0,1.11-1.68c.53-1,1.17-2.2,1.91-3.64q-6.45-4.53-13-9-4.25,8.24-19.58,17.28t-40,18a550,550,0,0,1-55.87,16.69q-25.71,6.4-37.66,7l-6.76.34,4.74-4.54q2.12-2,6.44-5.31t8.86-6.39q11.64-7.95,11.64-8.24h0a36,36,0,0,0-5.34,2.62q-15.74,8.19-25.91,17.86c-1.71,1.55-2.7,2.32-3,2.32-.07,0-.1,0-.1-.05l.1-.29q1.33-2.32,11.3-10.37,13.33-10.76,33.27-21.27c1.61-.86,2.42-1.4,2.42-1.63,0-.07-.05-.1-.15-.1a1.42,1.42,0,0,0-.39.1,7.28,7.28,0,0,0-.94.44,2.38,2.38,0,0,1-1,.35c-.23,0-.34-.13-.34-.4,0-.55,1.93-1.74,5.8-3.55A141.58,141.58,0,0,1,525.63,297q8.39-2.86,9.57-3.8a2.77,2.77,0,0,1,2-.84,2.56,2.56,0,0,0,1-.2c.47-.19.7-.41.7-.64s-.22-.29-.65-.29c-1.67,0-5.89,1.1-12.63,3.3a190.08,190.08,0,0,0-23.59,9.38,17.72,17.72,0,0,1-4.35,1.78h-.1c0-.2.86-.73,2.57-1.58Q532.1,288,552.43,288.05q5.73,0,5.73-.4c0-.06-.25-.16-.74-.29a25.06,25.06,0,0,0-6.42-.65l-4.79.1q-6.47.26-17.72,3.66-13.87,4.25-19.35,6.56a2.45,2.45,0,0,1-.84.25c-.13,0-.19,0-.19-.1a.75.75,0,0,1,.17-.4.84.84,0,0,0,.17-.34c0-.1-.06-.15-.19-.15a3.49,3.49,0,0,0-1.09.35q-4.25,1.62-11,5t-13.95,7.5q-17.72,10.08-26.18,18.51t-8.47,16A11,11,0,0,0,450,351.1q2.42,2.79,7.7,4.17a35.38,35.38,0,0,0,9.18,1,158,158,0,0,0,21.72-2.17,237.08,237.08,0,0,0,24-4.84Q546,340.07,563.09,334Zm-100.15,9.58c-.26,0-.64-.38-1.13-1.14a2.56,2.56,0,0,1-.64-1.18.19.19,0,0,1,.15-.2c.26,0,.6.35,1,1.06a3.81,3.81,0,0,1,.64,1.41S463,343.58,462.94,343.58Z"/><path class="cls-2" d="M394,340q3.67,3.76,7.35,22.43h1.73q3.68-18.66,7.35-22.43,2-2.07,6.87-3.95T430,331.65v-1.73q-7.77-2.46-12.66-4.34c-3.26-1.26-5.55-2.57-6.87-4q-3.68-3.75-7.35-22.43h-1.73q-3.68,18.68-7.35,22.43c-1.32,1.39-3.62,2.7-6.87,4s-7.48,2.7-12.67,4.34v1.73q7.79,2.46,12.67,4.35C390.38,337.25,392.68,338.57,394,340Z"/><path class="cls-4" d="M666.21,311.08c29.25-39.31,47-88.73,44.76-137.76C683.42,117.66,623.21,46.62,557.41,3.88a405.38,405.38,0,0,1,98,125.49c-7,31.65-31.42,91.92-47,117l-8.65,13.53c-11.29-19.72-29.46-40.55-47.17-56-29.6-25.8-64.12-48.54-100.24-68.53-17-9.48-34.48-18.32-51.92-26.58C348.63,84.27,293.05,66.61,236.2,60.4c-.38,1.14-.69,2.27-1,3.32,11.42,30.17,39.35,51.86,64.87,73.15,19.28-2.84,39,2.88,57.72,9.43l3.2,1.13q9.78,3.48,19.49,7.14,6.38,2.38,12.71,4.85,17.3,6.75,34.35,14,18.53,7.9,36.78,16.46,8.34,3.9,16.62,8l5,2.44q49.05,24.24,95.54,53,11.24,7,22.34,14.16l1.78,1.17q9.7,6.34,19.28,12.89,6.51,4.44,13,9Q652.18,300.57,666.21,311.08Z"/><path class="cls-2" d="M446.08,117.76A272.09,272.09,0,0,1,534.25,16.35c-35.7,31.66-63,66.8-76.85,107.87a646,646,0,0,1,151,122.13c15.59-25.06,40-85.33,47-117a405.38,405.38,0,0,0-98-125.49c-2-1.32-4-2.62-6.07-3.88-51.28.85-102.9,16.32-145.11,37.63,0,0-28.37,27.91-39.16,43.18A616.91,616.91,0,0,1,446.08,117.76Z"/><path class="cls-5" d="M537.53,179.57a645.58,645.58,0,0,0-80.13-55.35c-.56,1.58-1.06,3.18-1.56,4.76l-3.46,6.39c36.12,20,70.64,42.73,100.24,68.53,17.71,15.43,35.88,36.26,47.17,56l8.65-13.53A645.12,645.12,0,0,0,537.53,179.57Z"/><path class="cls-4" d="M534.25,16.35a272.09,272.09,0,0,0-88.17,101.41c3.8,2.12,7.56,4.27,11.32,6.46C471.29,83.15,498.55,48,534.25,16.35Z"/><path class="cls-6" d="M400.46,108.79c17.44,8.26,34.88,17.1,51.92,26.58l3.46-6.39c.5-1.58,1-3.18,1.56-4.76-3.76-2.19-7.52-4.34-11.32-6.46a616.91,616.91,0,0,0-79-36.95h0A568.27,568.27,0,0,0,242.83,48.59c-3.27,2.67-5.3,7.41-6.63,11.81C293.05,66.61,348.63,84.27,400.46,108.79Z"/></g></g></svg>